<svg width="140" height="26" viewBox="0 0 140 26" fill="none" xmlns="http://www.w3.org/2000/svg">
<path d="M68.4745 4.87453C68.0939 4.936 67.8016 4.99243 67.5977 5.04475V16.2655C67.5977 17.8387 68.0382 18.9749 68.9198 19.6738C69.8012 20.3725 71.0586 20.7224 72.6919 20.7224C74.0282 20.7224 74.9606 20.5127 75.4897 20.0932C76.0186 19.6738 76.2829 19.1322 76.2829 18.4678C76.2829 18.1359 76.2225 17.8518 76.102 17.6157C75.981 17.3799 75.8375 17.1659 75.6706 16.9734C75.4477 17.0436 75.1878 17.1004 74.8911 17.1439C74.5941 17.1877 74.3066 17.2095 74.0282 17.2095C73.4714 17.2095 73.0398 17.1136 72.7337 16.9211C72.4274 16.7289 72.2742 16.4057 72.2742 15.951V11.9923H74.8075C75.29 11.9923 75.6749 11.857 75.9627 11.5858C76.2504 11.3151 76.3943 10.874 76.3943 10.2621C76.3943 9.91251 76.343 9.59359 76.2411 9.30501C76.1389 9.01674 76.0324 8.77667 75.9211 8.58404H72.2742V6.90629C72.2742 6.03264 72.0468 5.46022 71.5922 5.18904C71.1373 4.91846 70.5018 4.78271 69.6854 4.78271C69.2583 4.78271 68.8546 4.81337 68.4745 4.87453V4.87453Z" fill="white"/>
<path d="M86.9983 10.9963C86.8684 10.9266 86.6783 10.8566 86.4277 10.7866C86.1772 10.717 85.8662 10.6816 85.495 10.6816C84.5857 10.6816 83.9037 10.9222 83.4491 11.4026C82.9941 11.8837 82.7671 12.5693 82.7671 13.4608C82.7671 14.4746 82.9941 15.2041 83.4491 15.6498C83.9037 16.0956 84.4835 16.3183 85.1889 16.3183C85.9496 16.3183 86.5529 16.1523 86.9983 15.8201V10.9963ZM85.2725 7.19482C86.3302 7.19482 87.2906 7.32188 88.1537 7.57506C89.0166 7.82856 89.7447 8.15633 90.3389 8.55822C90.7099 8.80318 91.0023 9.0739 91.2157 9.37086C91.4289 9.66844 91.5359 10.0525 91.5359 10.5245V19.7003C91.5359 20.6264 91.3501 21.4261 90.9793 22.099C90.6078 22.7718 90.1023 23.3313 89.4619 23.7769C88.8217 24.2226 88.0701 24.5504 87.2072 24.7599C86.3442 24.9698 85.4209 25.0747 84.4373 25.0747C82.7483 25.0747 81.4213 24.8603 80.4565 24.4323C79.4913 24.0039 79.009 23.3091 79.009 22.3481C79.009 21.9457 79.0967 21.592 79.2734 21.2862C79.4496 20.9804 79.6492 20.7491 79.8718 20.5916C80.41 20.8711 81.0177 21.1069 81.6953 21.2995C82.3726 21.4915 83.0732 21.5879 83.797 21.5879C84.7991 21.5879 85.5969 21.4305 86.1911 21.1159C86.7848 20.8014 87.0819 20.2945 87.0819 19.5954V19.1759C86.3207 19.4906 85.3928 19.6477 84.2982 19.6477C83.463 19.6477 82.6696 19.5298 81.918 19.294C81.1663 19.0579 80.5075 18.6909 79.9415 18.1929C79.3751 17.6946 78.9207 17.0524 78.5775 16.2658C78.2338 15.4794 78.0625 14.5446 78.0625 13.4608C78.0625 12.3948 78.2434 11.4682 78.6052 10.6816C78.9672 9.89524 79.4684 9.24442 80.1085 8.72859C80.7488 8.21337 81.5095 7.82856 82.3914 7.57506C83.2725 7.32188 84.2329 7.19482 85.2725 7.19482" fill="white"/>
<path d="M99.2792 20.3031C99.0748 20.3379 98.7734 20.3857 98.3745 20.4472C97.9753 20.5084 97.5715 20.539 97.1636 20.539C96.7551 20.539 96.3885 20.5128 96.0639 20.4603C95.739 20.408 95.4655 20.3031 95.2428 20.1458C95.0199 19.9884 94.8481 19.7746 94.7278 19.5036C94.6068 19.2327 94.5469 18.8788 94.5469 18.4417V3.2361C94.7508 3.20133 95.0523 3.15329 95.4516 3.09182C95.8504 3.03081 96.254 3 96.6625 3C97.0704 3 97.4371 3.02639 97.7621 3.0787C98.0865 3.13117 98.3606 3.23611 98.5832 3.39336C98.8059 3.55061 98.9773 3.7649 99.0983 4.03578C99.2188 4.30681 99.2792 4.66082 99.2792 5.09734V20.3031V20.3031Z" fill="white"/>
<path d="M102.254 7.77175C102.439 7.71913 102.732 7.66666 103.131 7.61435C103.53 7.56188 103.942 7.53564 104.37 7.53564C104.778 7.53564 105.144 7.56188 105.469 7.61435C105.794 7.66666 106.068 7.77175 106.29 7.92885C106.513 8.08625 106.684 8.30039 106.805 8.57112C106.926 8.84231 106.986 9.19631 106.986 9.63298V15.2696C106.986 15.9863 107.172 16.4976 107.543 16.8032C107.914 17.1093 108.452 17.262 109.158 17.262C109.584 17.262 109.932 17.2272 110.202 17.1571C110.47 17.0875 110.679 17.0175 110.828 16.9475V7.77175C111.013 7.71913 111.306 7.66666 111.705 7.61435C112.104 7.56188 112.516 7.53564 112.944 7.53564C113.352 7.53564 113.718 7.56188 114.043 7.61435C114.368 7.66666 114.642 7.77175 114.864 7.92885C115.087 8.08625 115.258 8.30039 115.379 8.57112C115.5 8.84231 115.56 9.19631 115.56 9.63298V17.6029C115.56 18.477 115.171 19.1324 114.391 19.5692C113.741 19.9537 112.967 20.2466 112.067 20.4473C111.166 20.648 110.188 20.7488 109.13 20.7488C108.128 20.7488 107.204 20.6439 106.36 20.4342C105.515 20.2246 104.787 19.9013 104.175 19.4641C103.562 19.0276 103.089 18.4639 102.755 17.7733C102.421 17.0831 102.254 16.2485 102.254 15.2696V7.77175V7.77175Z" fill="white"/>
<path d="M35.9047 3.09182C35.5055 3.15329 35.2041 3.20133 35 3.2361V18.4417C35 18.8788 35.0601 19.2327 35.1809 19.5036C35.3014 19.7746 35.4732 19.9884 35.6959 20.1458C35.9186 20.3031 36.1923 20.408 36.5172 20.4603C36.8417 20.5128 37.2084 20.539 37.6167 20.539C38.0434 20.539 38.4563 20.5128 38.8555 20.4603C39.2545 20.408 39.5467 20.3555 39.7324 20.3031V11.1272C39.9363 11.0051 40.2057 10.9004 40.5398 10.8127C40.8737 10.7254 41.2261 10.6815 41.5975 10.6815C42.1543 10.6815 42.6228 10.8258 43.0034 11.1142C43.3835 11.4025 43.574 11.9052 43.574 12.6217V18.4417C43.574 18.8788 43.6341 19.2327 43.7549 19.5036C43.8754 19.7746 44.0472 19.9884 44.2699 20.1458C44.4926 20.3031 44.7663 20.408 45.0912 20.4603C45.4157 20.5128 45.7824 20.539 46.1907 20.539C46.6174 20.539 47.0302 20.5128 47.4296 20.4603C47.8284 20.408 48.1207 20.3555 48.3064 20.3031V12.3596C48.3064 10.6467 47.7914 9.3576 46.7614 8.49264C45.7314 7.62738 44.2978 7.19468 42.4606 7.19468C41.8663 7.19468 41.3235 7.25172 40.832 7.3652C40.3401 7.47913 39.9734 7.57949 39.7324 7.66658V5.09734C39.7324 4.66082 39.672 4.30681 39.5515 4.03578C39.4306 3.7649 39.2592 3.55061 39.0365 3.39336C38.8138 3.23611 38.5397 3.13117 38.2153 3.0787C37.8904 3.02639 37.5236 3 37.1156 3C36.7073 3 36.3036 3.03081 35.9047 3.09182V3.09182Z" fill="white"/>
<path d="M54.9593 7.66673C54.0686 7.98138 53.303 8.43163 52.6626 9.01701C52.0226 9.60285 51.5257 10.3148 51.1735 11.1537C50.8206 11.9926 50.6445 12.9277 50.6445 13.9587C50.6445 15.0075 50.8206 15.9513 51.1735 16.7902C51.5257 17.6291 52.0226 18.3415 52.6626 18.9269C53.303 19.5126 54.0686 19.9625 54.9593 20.277C55.8502 20.5917 56.8427 20.7489 57.938 20.7489C59.0328 20.7489 60.0259 20.6002 60.9166 20.3032C61.8073 20.0061 62.5729 19.5691 63.2133 18.9923C63.8535 18.4156 64.3497 17.7036 64.7024 16.8558C65.0548 16.0082 65.2314 15.0427 65.2314 13.9587C65.2314 12.9454 65.0548 12.0188 64.7024 11.1799C64.3497 10.3408 63.8535 9.62893 63.2133 9.04309C62.5729 8.45786 61.8073 8.0035 60.9166 7.68C60.0259 7.35665 59.0328 7.19482 57.938 7.19482C56.8427 7.19482 55.8502 7.35223 54.9593 7.66673V7.66673ZM56.1424 16.4101C55.7062 15.8423 55.4882 15.025 55.4882 13.9587C55.4882 12.9102 55.7014 12.1019 56.1286 11.5338C56.5552 10.9661 57.1585 10.6816 57.938 10.6816C58.7174 10.6816 59.3202 10.9661 59.7475 11.5338C60.174 12.1019 60.3877 12.9102 60.3877 13.9587C60.3877 15.0075 60.1789 15.8203 59.7614 16.397C59.3437 16.9737 58.7451 17.2621 57.9658 17.2621C57.1863 17.2621 56.5784 16.9782 56.1424 16.4101V16.4101Z" fill="white"/>
<path d="M124.83 10.4458C124.385 10.4458 124 10.5157 123.675 10.6556C123.35 10.7956 123.086 10.9746 122.882 11.1929C122.677 11.4116 122.524 11.6563 122.422 11.927C122.32 12.1982 122.26 12.4735 122.241 12.7529L127.002 12.0188C126.946 11.6694 126.742 11.32 126.389 10.9702C126.037 10.6208 125.517 10.4458 124.83 10.4458V10.4458ZM125.61 20.7491C124.515 20.7491 123.499 20.6048 122.562 20.3163C121.624 20.0281 120.808 19.5954 120.112 19.0187C119.416 18.4418 118.868 17.7169 118.47 16.8426C118.07 15.9688 117.871 14.9465 117.871 13.7753C117.871 12.6219 118.07 11.63 118.47 10.7997C118.868 9.96982 119.392 9.28805 120.042 8.75483C120.692 8.22191 121.434 7.82856 122.269 7.57506C123.104 7.32188 123.958 7.19482 124.83 7.19482C125.814 7.19482 126.71 7.33499 127.517 7.61441C128.324 7.89414 129.02 8.2788 129.604 8.76794C130.189 9.25739 130.644 9.84277 130.968 10.5245C131.293 11.206 131.456 11.9491 131.456 12.7529C131.456 13.3473 131.279 13.8016 130.927 14.1161C130.574 14.4307 130.082 14.6318 129.451 14.7191L122.576 15.6891C122.78 16.2658 123.197 16.6984 123.828 16.9868C124.459 17.2752 125.183 17.4193 126 17.4193C126.76 17.4193 127.479 17.3277 128.157 17.1442C128.834 16.9605 129.386 16.7469 129.813 16.5018C130.11 16.6767 130.36 16.9212 130.565 17.2358C130.769 17.5503 130.871 17.8827 130.871 18.2321C130.871 19.0187 130.481 19.6044 129.702 19.9886C129.108 20.2861 128.44 20.4869 127.698 20.5917C126.955 20.6964 126.259 20.7491 125.61 20.7491" fill="white"/>
<path d="M6.49619 7.77647C4.33761 8.97887 2.1136 10.9608 1.40512 13.3279C1.39285 13.3686 1.38079 13.408 1.36853 13.446C0.404158 16.4625 1.39113 19.6663 3.64419 21.7307C3.01426 20.7588 2.64797 19.6001 2.64797 18.3555C2.64797 12.8391 9.61614 9.00685 9.61614 9.00685C9.61614 9.00685 8.77465 11.1545 13.3322 15.3942C17.8302 19.5783 13.4017 23.6859 9.9665 24.4568C10.1903 24.4568 16.0045 23.6377 18.1947 20.9865C18.1947 20.9865 21.777 17.6388 18.9067 13.1467C18.9067 13.1467 18.8589 14.0928 17.384 14.3781C15.2274 14.795 13.4179 13.378 13.213 11.1908C13.1396 10.4057 13.1011 9.57027 13.1011 8.33624C13.2386 8.24542 14.3396 4.46779 7.17734 0.645175L7.19973 0.620425C7.15733 0.614399 7.11192 0.611816 7.11192 0.611816C9.58644 4.57023 8.38404 6.72494 6.49619 7.77647V7.77647Z" fill="url(#paint0_linear_1979_2229)"/>
<path d="M7.83468 1.07366C7.89192 1.1124 8.06839 1.23314 8.10003 1.25509C8.15857 1.29598 8.67659 1.66765 8.82982 1.78365L9.3558 2.19643L9.56305 2.36731L10.01 2.7562L10.3748 3.09602L10.5405 3.25829L10.8952 3.62652L11.3099 4.09913L11.6958 4.59606L11.9866 5.02153L12.2528 5.47176L12.5171 6.01323L12.6533 6.35865L12.791 6.81253L12.8834 7.29181L12.9137 7.73537V7.73903L12.9079 7.91593C12.8786 8.84006 12.9847 11.1396 12.9901 11.1979C13.0861 12.223 13.5834 13.1159 14.3068 13.7321C14.4032 13.8143 14.7127 14.0342 14.7665 14.0676C14.8741 14.1341 15.3299 14.356 15.4493 14.3994C16.047 14.6175 16.7086 14.6824 17.3826 14.5522C18.0278 14.4274 18.4003 14.1728 18.6156 13.926C18.6308 13.9083 18.6455 13.8907 18.6592 13.8732C18.7559 13.7508 18.825 13.6356 18.8512 13.5358C18.8958 13.3679 18.907 13.3186 18.9091 13.3057C20.8822 17.013 19.2554 19.407 18.0282 20.8184C15.7892 23.3932 9.96786 24.4568 9.96786 24.4568C12.0948 24.5687 13.9979 24.1768 15.5795 23.637C19.6058 22.2629 21.8771 18.2442 20.6863 14.1601C19.9828 11.7465 16.8177 9.00685 16.8177 9.00685C19.3146 13.7039 16.0692 13.4299 15.2853 12.9261C15.2619 12.9115 15.1394 12.8303 15.1175 12.8142C14.4385 12.3127 14.514 11.256 14.4458 10.5751C14.3898 10.0153 14.4006 9.19322 14.3898 8.95197C14.0539 1.39541 7.97994 0.730614 7.20109 0.620425C7.17182 0.615905 7.14255 0.613108 7.11328 0.611816C7.20905 0.672291 7.80175 1.0515 7.83468 1.07366V1.07366Z" fill="url(#paint1_linear_1979_2229)"/>
<path d="M10.3594 23.393C16.1247 21.1541 13.5721 17.0605 13.5721 17.0605C14.2438 21.2585 10.3594 23.393 10.3594 23.393V23.393Z" fill="url(#paint2_linear_1979_2229)"/>
<defs>
<linearGradient id="paint0_linear_1979_2229" x1="8.10039" y1="23.3635" x2="15.7426" y2="0.349686" gradientUnits="userSpaceOnUse">
<stop stop-color="#FF2651"/>
<stop offset="0.01" stop-color="#FF2651"/>
<stop offset="1" stop-color="#FF7B2C"/>
</linearGradient>
<linearGradient id="paint1_linear_1979_2229" x1="14.058" y1="25.0396" x2="14.058" y2="-4.46226" gradientUnits="userSpaceOnUse">
<stop stop-color="#FF7B2C"/>
<stop offset="0.99" stop-color="#FF2651"/>
<stop offset="1" stop-color="#FF2651"/>
</linearGradient>
<linearGradient id="paint2_linear_1979_2229" x1="10.3594" y1="20.2024" x2="14.2162" y2="20.2024" gradientUnits="userSpaceOnUse">
<stop stop-color="#FF2651"/>
<stop offset="0.01" stop-color="#FF2651"/>
<stop offset="1" stop-color="#FF7B2C"/>
</linearGradient>
</defs>
</svg>
