<svg width="200" height="26" viewBox="0 0 200 26" fill="none" xmlns="http://www.w3.org/2000/svg">
<path d="M68.4745 3.87453C68.0939 3.936 67.8016 3.99243 67.5977 4.04475V15.2655C67.5977 16.8387 68.0382 17.9749 68.9198 18.6738C69.8012 19.3725 71.0586 19.7224 72.6919 19.7224C74.0282 19.7224 74.9606 19.5127 75.4897 19.0932C76.0186 18.6738 76.2829 18.1322 76.2829 17.4678C76.2829 17.1359 76.2225 16.8518 76.102 16.6157C75.981 16.3799 75.8375 16.1659 75.6706 15.9734C75.4477 16.0436 75.1878 16.1004 74.8911 16.1439C74.5941 16.1877 74.3066 16.2095 74.0282 16.2095C73.4714 16.2095 73.0398 16.1136 72.7337 15.9211C72.4274 15.7289 72.2742 15.4057 72.2742 14.951V10.9923H74.8075C75.29 10.9923 75.6749 10.857 75.9627 10.5858C76.2504 10.3151 76.3943 9.87401 76.3943 9.26209C76.3943 8.91251 76.343 8.59359 76.2411 8.30501C76.1389 8.01674 76.0324 7.77667 75.9211 7.58404H72.2742V5.90629C72.2742 5.03264 72.0468 4.46022 71.5922 4.18904C71.1373 3.91846 70.5018 3.78271 69.6854 3.78271C69.2583 3.78271 68.8546 3.81337 68.4745 3.87453Z" fill="white"/>
<path d="M86.9983 9.9963C86.8684 9.92659 86.6783 9.85659 86.4277 9.78658C86.1772 9.71703 85.8662 9.68164 85.495 9.68164C84.5857 9.68164 83.9037 9.92217 83.4491 10.4026C82.9941 10.8837 82.7671 11.5693 82.7671 12.4608C82.7671 13.4746 82.9941 14.2041 83.4491 14.6498C83.9037 15.0956 84.4835 15.3183 85.1889 15.3183C85.9496 15.3183 86.5529 15.1523 86.9983 14.8201V9.9963ZM85.2725 6.19482C86.3302 6.19482 87.2906 6.32188 88.1537 6.57506C89.0166 6.82856 89.7447 7.15633 90.3389 7.55822C90.7099 7.80318 91.0023 8.0739 91.2157 8.37086C91.4289 8.66844 91.5359 9.05249 91.5359 9.52455V18.7003C91.5359 19.6264 91.3501 20.4261 90.9793 21.099C90.6078 21.7718 90.1023 22.3313 89.4619 22.7769C88.8217 23.2226 88.0701 23.5504 87.2072 23.7599C86.3442 23.9698 85.4209 24.0747 84.4373 24.0747C82.7483 24.0747 81.4213 23.8603 80.4565 23.4323C79.4913 23.0039 79.009 22.3091 79.009 21.3481C79.009 20.9457 79.0967 20.592 79.2734 20.2862C79.4496 19.9804 79.6492 19.7491 79.8718 19.5916C80.41 19.8711 81.0177 20.1069 81.6953 20.2995C82.3726 20.4915 83.0732 20.5879 83.797 20.5879C84.7991 20.5879 85.5969 20.4305 86.1911 20.1159C86.7848 19.8014 87.0819 19.2945 87.0819 18.5954V18.1759C86.3207 18.4906 85.3928 18.6477 84.2982 18.6477C83.463 18.6477 82.6696 18.5298 81.918 18.294C81.1663 18.0579 80.5075 17.6909 79.9415 17.1929C79.3751 16.6946 78.9207 16.0524 78.5775 15.2658C78.2338 14.4794 78.0625 13.5446 78.0625 12.4608C78.0625 11.3948 78.2434 10.4682 78.6052 9.68164C78.9672 8.89524 79.4684 8.24442 80.1085 7.72859C80.7488 7.21337 81.5095 6.82856 82.3914 6.57506C83.2725 6.32188 84.2329 6.19482 85.2725 6.19482Z" fill="white"/>
<path d="M99.2792 19.3031C99.0748 19.3379 98.7734 19.3857 98.3745 19.4472C97.9753 19.5084 97.5715 19.539 97.1636 19.539C96.7551 19.539 96.3885 19.5128 96.0639 19.4603C95.739 19.408 95.4655 19.3031 95.2428 19.1458C95.0199 18.9884 94.8481 18.7746 94.7278 18.5036C94.6068 18.2327 94.5469 17.8788 94.5469 17.4417V2.2361C94.7508 2.20133 95.0523 2.15329 95.4516 2.09182C95.8504 2.03081 96.254 2 96.6625 2C97.0704 2 97.4371 2.02639 97.7621 2.0787C98.0865 2.13117 98.3606 2.23611 98.5832 2.39336C98.8059 2.55061 98.9773 2.7649 99.0983 3.03578C99.2188 3.30681 99.2792 3.66082 99.2792 4.09734V19.3031Z" fill="white"/>
<path d="M102.254 6.77175C102.439 6.71913 102.732 6.66666 103.131 6.61435C103.53 6.56188 103.942 6.53564 104.37 6.53564C104.778 6.53564 105.144 6.56188 105.469 6.61435C105.794 6.66666 106.068 6.77175 106.29 6.92885C106.513 7.08625 106.684 7.30039 106.805 7.57112C106.926 7.84231 106.986 8.19631 106.986 8.63298V14.2696C106.986 14.9863 107.172 15.4976 107.543 15.8032C107.914 16.1093 108.452 16.262 109.158 16.262C109.584 16.262 109.932 16.2272 110.202 16.1571C110.47 16.0875 110.679 16.0175 110.828 15.9475V6.77175C111.013 6.71913 111.306 6.66666 111.705 6.61435C112.104 6.56188 112.516 6.53564 112.944 6.53564C113.352 6.53564 113.718 6.56188 114.043 6.61435C114.368 6.66666 114.642 6.77175 114.864 6.92885C115.087 7.08625 115.258 7.30039 115.379 7.57112C115.5 7.84231 115.56 8.19631 115.56 8.63298V16.6029C115.56 17.477 115.171 18.1324 114.391 18.5692C113.741 18.9537 112.967 19.2466 112.067 19.4473C111.166 19.648 110.188 19.7488 109.13 19.7488C108.128 19.7488 107.204 19.6439 106.36 19.4342C105.515 19.2246 104.787 18.9013 104.175 18.4641C103.562 18.0276 103.089 17.4639 102.755 16.7733C102.421 16.0831 102.254 15.2485 102.254 14.2696V6.77175Z" fill="white"/>
<path d="M35.9047 2.09182C35.5055 2.15329 35.2041 2.20133 35 2.2361V17.4417C35 17.8788 35.0601 18.2327 35.1809 18.5036C35.3014 18.7746 35.4732 18.9884 35.6959 19.1458C35.9186 19.3031 36.1923 19.408 36.5172 19.4603C36.8417 19.5128 37.2084 19.539 37.6167 19.539C38.0434 19.539 38.4563 19.5128 38.8555 19.4603C39.2545 19.408 39.5467 19.3555 39.7324 19.3031V10.1272C39.9363 10.0051 40.2057 9.90037 40.5398 9.81267C40.8737 9.72542 41.2261 9.6815 41.5975 9.6815C42.1543 9.6815 42.6228 9.82578 43.0034 10.1142C43.3835 10.4025 43.574 10.9052 43.574 11.6217V17.4417C43.574 17.8788 43.6341 18.2327 43.7549 18.5036C43.8754 18.7746 44.0472 18.9884 44.2699 19.1458C44.4926 19.3031 44.7663 19.408 45.0912 19.4603C45.4157 19.5128 45.7824 19.539 46.1907 19.539C46.6174 19.539 47.0302 19.5128 47.4296 19.4603C47.8284 19.408 48.1207 19.3555 48.3064 19.3031V11.3596C48.3064 9.64672 47.7914 8.3576 46.7614 7.49264C45.7314 6.62738 44.2978 6.19468 42.4606 6.19468C41.8663 6.19468 41.3235 6.25172 40.832 6.3652C40.3401 6.47913 39.9734 6.57949 39.7324 6.66658V4.09734C39.7324 3.66082 39.672 3.30681 39.5515 3.03578C39.4306 2.7649 39.2592 2.55061 39.0365 2.39336C38.8138 2.23611 38.5397 2.13117 38.2153 2.0787C37.8904 2.02639 37.5236 2 37.1156 2C36.7073 2 36.3036 2.03081 35.9047 2.09182Z" fill="white"/>
<path d="M54.9593 6.66673C54.0686 6.98138 53.303 7.43163 52.6626 8.01701C52.0226 8.60285 51.5257 9.31483 51.1735 10.1537C50.8206 10.9926 50.6445 11.9277 50.6445 12.9587C50.6445 14.0075 50.8206 14.9513 51.1735 15.7902C51.5257 16.6291 52.0226 17.3415 52.6626 17.9269C53.303 18.5126 54.0686 18.9625 54.9593 19.277C55.8502 19.5917 56.8427 19.7489 57.938 19.7489C59.0328 19.7489 60.0259 19.6002 60.9166 19.3032C61.8073 19.0061 62.5729 18.5691 63.2133 17.9923C63.8535 17.4156 64.3497 16.7036 64.7024 15.8558C65.0548 15.0082 65.2314 14.0427 65.2314 12.9587C65.2314 11.9454 65.0548 11.0188 64.7024 10.1799C64.3497 9.34076 63.8535 8.62893 63.2133 8.04309C62.5729 7.45786 61.8073 7.0035 60.9166 6.68C60.0259 6.35665 59.0328 6.19482 57.938 6.19482C56.8427 6.19482 55.8502 6.35223 54.9593 6.66673ZM56.1424 15.4101C55.7062 14.8423 55.4882 14.025 55.4882 12.9587C55.4882 11.9102 55.7014 11.1019 56.1286 10.5338C56.5552 9.9661 57.1585 9.68165 57.938 9.68165C58.7174 9.68165 59.3202 9.9661 59.7475 10.5338C60.174 11.1019 60.3877 11.9102 60.3877 12.9587C60.3877 14.0075 60.1789 14.8203 59.7614 15.397C59.3437 15.9737 58.7451 16.2621 57.9658 16.2621C57.1863 16.2621 56.5784 15.9782 56.1424 15.4101Z" fill="white"/>
<path d="M124.83 9.44584C124.385 9.44584 124 9.5157 123.675 9.65556C123.35 9.79558 123.086 9.97464 122.882 10.1929C122.677 10.4116 122.524 10.6563 122.422 10.927C122.32 11.1982 122.26 11.4735 122.241 11.7529L127.002 11.0188C126.946 10.6694 126.742 10.32 126.389 9.97022C126.037 9.62079 125.517 9.44584 124.83 9.44584ZM125.61 19.7491C124.515 19.7491 123.499 19.6048 122.562 19.3163C121.624 19.0281 120.808 18.5954 120.112 18.0187C119.416 17.4418 118.868 16.7169 118.47 15.8426C118.07 14.9688 117.871 13.9465 117.871 12.7753C117.871 11.6219 118.07 10.63 118.47 9.7997C118.868 8.96982 119.392 8.28805 120.042 7.75483C120.692 7.22191 121.434 6.82856 122.269 6.57506C123.104 6.32188 123.958 6.19482 124.83 6.19482C125.814 6.19482 126.71 6.33499 127.517 6.61441C128.324 6.89414 129.02 7.2788 129.604 7.76794C130.189 8.25739 130.644 8.84277 130.968 9.52455C131.293 10.206 131.456 10.9491 131.456 11.7529C131.456 12.3473 131.279 12.8016 130.927 13.1161C130.574 13.4307 130.082 13.6318 129.451 13.7191L122.576 14.6891C122.78 15.2658 123.197 15.6984 123.828 15.9868C124.459 16.2752 125.183 16.4193 126 16.4193C126.76 16.4193 127.479 16.3277 128.157 16.1442C128.834 15.9605 129.386 15.7469 129.813 15.5018C130.11 15.6767 130.36 15.9212 130.565 16.2358C130.769 16.5504 130.871 16.8827 130.871 17.2321C130.871 18.0187 130.481 18.6044 129.702 18.9886C129.108 19.2861 128.44 19.4869 127.698 19.5917C126.955 19.6964 126.259 19.7491 125.61 19.7491Z" fill="white"/>
<path d="M6.49619 8.16466C4.33761 9.36705 2.1136 11.3489 1.40512 13.7161C1.39285 13.7567 1.38079 13.7961 1.36853 13.8342C0.404158 16.8507 1.39113 20.0545 3.64419 22.1189C3.01426 21.1469 2.64797 19.9882 2.64797 18.7437C2.64797 13.2273 9.61614 9.39503 9.61614 9.39503C9.61614 9.39503 8.77465 11.5426 13.3322 15.7823C17.8302 19.9665 13.4017 24.0741 9.9665 24.845C10.1903 24.845 16.0045 24.0259 18.1947 21.3746C18.1947 21.3746 21.777 18.027 18.9067 13.5349C18.9067 13.5349 18.8589 14.4809 17.384 14.7663C15.2274 15.1832 13.4179 13.7662 13.213 11.579C13.1396 10.7939 13.1011 9.95846 13.1011 8.72442C13.2386 8.63361 14.3396 4.85597 7.17734 1.03336L7.19973 1.00861C7.15733 1.00258 7.11192 1 7.11192 1C9.58644 4.95841 8.38404 7.11312 6.49619 8.16466Z" fill="url(#paint0_linear_1979_2229)"/>
<path d="M7.83468 1.46185C7.89192 1.50059 8.06839 1.62132 8.10003 1.64327C8.15857 1.68416 8.67659 2.05584 8.82982 2.17184L9.3558 2.58461L9.56305 2.75549L10.01 3.14438L10.3748 3.4842L10.5405 3.64647L10.8952 4.0147L11.3099 4.48731L11.6958 4.98424L11.9866 5.40972L12.2528 5.85994L12.5171 6.40142L12.6533 6.74683L12.791 7.20072L12.8834 7.68L12.9137 8.12355V8.12721L12.9079 8.30412C12.8786 9.22824 12.9847 11.5278 12.9901 11.5861C13.0861 12.6112 13.5834 13.5041 14.3068 14.1202C14.4032 14.2025 14.7127 14.4224 14.7665 14.4558C14.8741 14.5223 15.3299 14.7442 15.4493 14.7876C16.047 15.0056 16.7086 15.0706 17.3826 14.9404C18.0278 14.8156 18.4003 14.561 18.6156 14.3142C18.6308 14.2965 18.6455 14.2789 18.6592 14.2614C18.7559 14.139 18.825 14.0238 18.8512 13.924C18.8958 13.7561 18.907 13.7068 18.9091 13.6939C20.8822 17.4012 19.2554 19.7952 18.0282 21.2066C15.7892 23.7814 9.96786 24.845 9.96786 24.845C12.0948 24.9569 13.9979 24.565 15.5795 24.0252C19.6058 22.6511 21.8771 18.6324 20.6863 14.5483C19.9828 12.1347 16.8177 9.39503 16.8177 9.39503C19.3146 14.0921 16.0692 13.8181 15.2853 13.3143C15.2619 13.2996 15.1394 13.2185 15.1175 13.2024C14.4385 12.7009 14.514 11.6442 14.4458 10.9633C14.3898 10.4035 14.4006 9.58141 14.3898 9.34015C14.0539 1.78359 7.97994 1.1188 7.20109 1.00861C7.17182 1.00409 7.14255 1.00129 7.11328 1C7.20905 1.06047 7.80175 1.43968 7.83468 1.46185Z" fill="url(#paint1_linear_1979_2229)"/>
<path d="M10.3594 23.7812C16.1247 21.5423 13.5721 17.4487 13.5721 17.4487C14.2438 21.6467 10.3594 23.7812 10.3594 23.7812Z" fill="url(#paint2_linear_1979_2229)"/>
<path d="M142.003 19V7.21H144.991C146.167 7.21 147.163 7.432 147.979 7.876C148.807 8.32 149.437 8.98 149.869 9.856C150.301 10.72 150.517 11.788 150.517 13.06C150.517 14.332 150.301 15.412 149.869 16.3C149.437 17.188 148.819 17.86 148.015 18.316C147.211 18.772 146.233 19 145.081 19H142.003ZM143.803 17.542H144.883C145.711 17.542 146.401 17.374 146.953 17.038C147.517 16.69 147.943 16.186 148.231 15.526C148.519 14.866 148.663 14.044 148.663 13.06C148.663 12.076 148.519 11.26 148.231 10.612C147.943 9.964 147.517 9.478 146.953 9.154C146.401 8.83 145.711 8.668 144.883 8.668H143.803V17.542ZM156.972 19.216C156.072 19.216 155.274 18.976 154.578 18.496C153.894 18.004 153.354 17.302 152.958 16.39C152.574 15.466 152.382 14.356 152.382 13.06C152.382 11.776 152.574 10.684 152.958 9.784C153.354 8.872 153.894 8.182 154.578 7.714C155.274 7.234 156.072 6.994 156.972 6.994C157.872 6.994 158.664 7.234 159.348 7.714C160.044 8.182 160.584 8.872 160.968 9.784C161.364 10.684 161.562 11.776 161.562 13.06C161.562 14.356 161.364 15.466 160.968 16.39C160.584 17.302 160.044 18.004 159.348 18.496C158.664 18.976 157.872 19.216 156.972 19.216ZM156.972 17.65C157.524 17.65 158.004 17.47 158.412 17.11C158.82 16.738 159.138 16.21 159.366 15.526C159.594 14.842 159.708 14.02 159.708 13.06C159.708 12.1 159.594 11.29 159.366 10.63C159.138 9.958 158.82 9.448 158.412 9.1C158.004 8.74 157.524 8.56 156.972 8.56C156.42 8.56 155.94 8.74 155.532 9.1C155.124 9.448 154.806 9.958 154.578 10.63C154.35 11.29 154.236 12.1 154.236 13.06C154.236 14.02 154.35 14.842 154.578 15.526C154.806 16.21 155.124 16.738 155.532 17.11C155.94 17.47 156.42 17.65 156.972 17.65ZM168.971 19.216C168.239 19.216 167.555 19.084 166.919 18.82C166.295 18.544 165.743 18.148 165.263 17.632C164.795 17.104 164.423 16.462 164.147 15.706C163.883 14.95 163.751 14.092 163.751 13.132C163.751 11.848 163.985 10.75 164.453 9.838C164.921 8.914 165.557 8.212 166.361 7.732C167.165 7.24 168.083 6.994 169.115 6.994C169.835 6.994 170.477 7.144 171.041 7.444C171.605 7.732 172.067 8.068 172.427 8.452L171.419 9.586C171.119 9.262 170.777 9.01 170.393 8.83C170.021 8.65 169.595 8.56 169.115 8.56C168.419 8.56 167.807 8.746 167.279 9.118C166.751 9.478 166.337 9.994 166.037 10.666C165.749 11.338 165.605 12.142 165.605 13.078C165.605 14.014 165.749 14.824 166.037 15.508C166.337 16.192 166.751 16.72 167.279 17.092C167.819 17.464 168.443 17.65 169.151 17.65C169.667 17.65 170.129 17.542 170.537 17.326C170.945 17.098 171.323 16.792 171.671 16.408L172.679 17.506C172.223 18.046 171.689 18.466 171.077 18.766C170.465 19.066 169.763 19.216 168.971 19.216ZM179.152 19.216C178.312 19.216 177.52 19.06 176.776 18.748C176.032 18.436 175.384 18.01 174.832 17.47L175.876 16.246C176.332 16.666 176.848 17.008 177.424 17.272C178 17.524 178.612 17.65 179.26 17.65C180.004 17.65 180.58 17.494 180.988 17.182C181.396 16.87 181.6 16.474 181.6 15.994C181.6 15.61 181.51 15.304 181.33 15.076C181.15 14.848 180.904 14.656 180.592 14.5C180.292 14.344 179.944 14.188 179.548 14.032L177.892 13.294C177.496 13.138 177.1 12.934 176.704 12.682C176.32 12.418 176.002 12.088 175.75 11.692C175.498 11.284 175.372 10.792 175.372 10.216C175.372 9.604 175.54 9.058 175.876 8.578C176.212 8.086 176.68 7.702 177.28 7.426C177.88 7.138 178.57 6.994 179.35 6.994C180.082 6.994 180.766 7.132 181.402 7.408C182.038 7.672 182.584 8.026 183.04 8.47L182.104 9.622C181.72 9.286 181.3 9.028 180.844 8.848C180.4 8.656 179.872 8.56 179.26 8.56C178.648 8.56 178.15 8.698 177.766 8.974C177.382 9.25 177.19 9.628 177.19 10.108C177.19 10.456 177.286 10.738 177.478 10.954C177.682 11.17 177.94 11.35 178.252 11.494C178.576 11.638 178.906 11.782 179.242 11.926L180.844 12.628C181.336 12.82 181.774 13.054 182.158 13.33C182.554 13.594 182.866 13.924 183.094 14.32C183.322 14.716 183.436 15.202 183.436 15.778C183.436 16.414 183.262 16.996 182.914 17.524C182.578 18.04 182.086 18.454 181.438 18.766C180.802 19.066 180.04 19.216 179.152 19.216Z" fill="#FF6238"/>
<defs>
<linearGradient id="paint0_linear_1979_2229" x1="8.10039" y1="23.7517" x2="15.7426" y2="0.737869" gradientUnits="userSpaceOnUse">
<stop stop-color="#FF2651"/>
<stop offset="0.01" stop-color="#FF2651"/>
<stop offset="1" stop-color="#FF7B2C"/>
</linearGradient>
<linearGradient id="paint1_linear_1979_2229" x1="14.058" y1="25.4278" x2="14.058" y2="-4.07408" gradientUnits="userSpaceOnUse">
<stop stop-color="#FF7B2C"/>
<stop offset="0.99" stop-color="#FF2651"/>
<stop offset="1" stop-color="#FF2651"/>
</linearGradient>
<linearGradient id="paint2_linear_1979_2229" x1="10.3594" y1="20.5906" x2="14.2162" y2="20.5906" gradientUnits="userSpaceOnUse">
<stop stop-color="#FF2651"/>
<stop offset="0.01" stop-color="#FF2651"/>
<stop offset="1" stop-color="#FF7B2C"/>
</linearGradient>
</defs>
</svg>
