<svg width="200" height="26" viewBox="0 0 200 26" fill="none" xmlns="http://www.w3.org/2000/svg">
<path d="M68.4745 4.87453C68.0939 4.936 67.8016 4.99243 67.5977 5.04475V16.2655C67.5977 17.8387 68.0382 18.9749 68.9198 19.6738C69.8012 20.3725 71.0586 20.7224 72.6919 20.7224C74.0282 20.7224 74.9606 20.5127 75.4897 20.0932C76.0186 19.6738 76.2829 19.1322 76.2829 18.4678C76.2829 18.1359 76.2225 17.8518 76.102 17.6157C75.981 17.3799 75.8375 17.1659 75.6706 16.9734C75.4477 17.0436 75.1878 17.1004 74.8911 17.1439C74.5941 17.1877 74.3066 17.2095 74.0282 17.2095C73.4714 17.2095 73.0398 17.1136 72.7337 16.9211C72.4274 16.7289 72.2742 16.4057 72.2742 15.951V11.9923H74.8075C75.29 11.9923 75.6749 11.857 75.9627 11.5858C76.2504 11.3151 76.3943 10.874 76.3943 10.2621C76.3943 9.91251 76.343 9.59359 76.2411 9.30501C76.1389 9.01674 76.0324 8.77667 75.9211 8.58404H72.2742V6.90629C72.2742 6.03264 72.0468 5.46022 71.5922 5.18904C71.1373 4.91846 70.5018 4.78271 69.6854 4.78271C69.2583 4.78271 68.8546 4.81337 68.4745 4.87453Z" fill="white"/>
<path d="M86.9983 10.9963C86.8684 10.9266 86.6783 10.8566 86.4277 10.7866C86.1772 10.717 85.8662 10.6816 85.495 10.6816C84.5857 10.6816 83.9037 10.9222 83.4491 11.4026C82.9941 11.8837 82.7671 12.5693 82.7671 13.4608C82.7671 14.4746 82.9941 15.2041 83.4491 15.6498C83.9037 16.0956 84.4835 16.3183 85.1889 16.3183C85.9496 16.3183 86.5529 16.1523 86.9983 15.8201V10.9963ZM85.2725 7.19482C86.3302 7.19482 87.2906 7.32188 88.1537 7.57506C89.0166 7.82856 89.7447 8.15633 90.3389 8.55822C90.7099 8.80318 91.0023 9.0739 91.2157 9.37086C91.4289 9.66844 91.5359 10.0525 91.5359 10.5245V19.7003C91.5359 20.6264 91.3501 21.4261 90.9793 22.099C90.6078 22.7718 90.1023 23.3313 89.4619 23.7769C88.8217 24.2226 88.0701 24.5504 87.2072 24.7599C86.3442 24.9698 85.4209 25.0747 84.4373 25.0747C82.7483 25.0747 81.4213 24.8603 80.4565 24.4323C79.4913 24.0039 79.009 23.3091 79.009 22.3481C79.009 21.9457 79.0967 21.592 79.2734 21.2862C79.4496 20.9804 79.6492 20.7491 79.8718 20.5916C80.41 20.8711 81.0177 21.1069 81.6953 21.2995C82.3726 21.4915 83.0732 21.5879 83.797 21.5879C84.7991 21.5879 85.5969 21.4305 86.1911 21.1159C86.7848 20.8014 87.0819 20.2945 87.0819 19.5954V19.1759C86.3207 19.4906 85.3928 19.6477 84.2982 19.6477C83.463 19.6477 82.6696 19.5298 81.918 19.294C81.1663 19.0579 80.5075 18.6909 79.9415 18.1929C79.3751 17.6946 78.9207 17.0524 78.5775 16.2658C78.2338 15.4794 78.0625 14.5446 78.0625 13.4608C78.0625 12.3948 78.2434 11.4682 78.6052 10.6816C78.9672 9.89524 79.4684 9.24442 80.1085 8.72859C80.7488 8.21337 81.5095 7.82856 82.3914 7.57506C83.2725 7.32188 84.2329 7.19482 85.2725 7.19482Z" fill="white"/>
<path d="M99.2792 20.3031C99.0748 20.3379 98.7734 20.3857 98.3745 20.4472C97.9753 20.5084 97.5715 20.539 97.1636 20.539C96.7551 20.539 96.3885 20.5128 96.0639 20.4603C95.739 20.408 95.4655 20.3031 95.2428 20.1458C95.0199 19.9884 94.8481 19.7746 94.7278 19.5036C94.6068 19.2327 94.5469 18.8788 94.5469 18.4417V3.2361C94.7508 3.20133 95.0523 3.15329 95.4516 3.09182C95.8504 3.03081 96.254 3 96.6625 3C97.0704 3 97.4371 3.02639 97.7621 3.0787C98.0865 3.13117 98.3606 3.23611 98.5832 3.39336C98.8059 3.55061 98.9773 3.7649 99.0983 4.03578C99.2188 4.30681 99.2792 4.66082 99.2792 5.09734V20.3031Z" fill="white"/>
<path d="M102.254 7.77175C102.439 7.71913 102.732 7.66666 103.131 7.61435C103.53 7.56188 103.942 7.53564 104.37 7.53564C104.778 7.53564 105.144 7.56188 105.469 7.61435C105.794 7.66666 106.068 7.77175 106.29 7.92885C106.513 8.08625 106.684 8.30039 106.805 8.57112C106.926 8.84231 106.986 9.19631 106.986 9.63298V15.2696C106.986 15.9863 107.172 16.4976 107.543 16.8032C107.914 17.1093 108.452 17.262 109.158 17.262C109.584 17.262 109.932 17.2272 110.202 17.1571C110.47 17.0875 110.679 17.0175 110.828 16.9475V7.77175C111.013 7.71913 111.306 7.66666 111.705 7.61435C112.104 7.56188 112.516 7.53564 112.944 7.53564C113.352 7.53564 113.718 7.56188 114.043 7.61435C114.368 7.66666 114.642 7.77175 114.864 7.92885C115.087 8.08625 115.258 8.30039 115.379 8.57112C115.5 8.84231 115.56 9.19631 115.56 9.63298V17.6029C115.56 18.477 115.171 19.1324 114.391 19.5692C113.741 19.9537 112.967 20.2466 112.067 20.4473C111.166 20.648 110.188 20.7488 109.13 20.7488C108.128 20.7488 107.204 20.6439 106.36 20.4342C105.515 20.2246 104.787 19.9013 104.175 19.4641C103.562 19.0276 103.089 18.4639 102.755 17.7733C102.421 17.0831 102.254 16.2485 102.254 15.2696V7.77175Z" fill="white"/>
<path d="M35.9047 3.09182C35.5055 3.15329 35.2041 3.20133 35 3.2361V18.4417C35 18.8788 35.0601 19.2327 35.1809 19.5036C35.3014 19.7746 35.4732 19.9884 35.6959 20.1458C35.9186 20.3031 36.1923 20.408 36.5172 20.4603C36.8417 20.5128 37.2084 20.539 37.6167 20.539C38.0434 20.539 38.4563 20.5128 38.8555 20.4603C39.2545 20.408 39.5467 20.3555 39.7324 20.3031V11.1272C39.9363 11.0051 40.2057 10.9004 40.5398 10.8127C40.8737 10.7254 41.2261 10.6815 41.5975 10.6815C42.1543 10.6815 42.6228 10.8258 43.0034 11.1142C43.3835 11.4025 43.574 11.9052 43.574 12.6217V18.4417C43.574 18.8788 43.6341 19.2327 43.7549 19.5036C43.8754 19.7746 44.0472 19.9884 44.2699 20.1458C44.4926 20.3031 44.7663 20.408 45.0912 20.4603C45.4157 20.5128 45.7824 20.539 46.1907 20.539C46.6174 20.539 47.0302 20.5128 47.4296 20.4603C47.8284 20.408 48.1207 20.3555 48.3064 20.3031V12.3596C48.3064 10.6467 47.7914 9.3576 46.7614 8.49264C45.7314 7.62738 44.2978 7.19468 42.4606 7.19468C41.8663 7.19468 41.3235 7.25172 40.832 7.3652C40.3401 7.47913 39.9734 7.57949 39.7324 7.66658V5.09734C39.7324 4.66082 39.672 4.30681 39.5515 4.03578C39.4306 3.7649 39.2592 3.55061 39.0365 3.39336C38.8138 3.23611 38.5397 3.13117 38.2153 3.0787C37.8904 3.02639 37.5236 3 37.1156 3C36.7073 3 36.3036 3.03081 35.9047 3.09182Z" fill="white"/>
<path d="M54.9593 7.66673C54.0686 7.98138 53.303 8.43163 52.6626 9.01701C52.0226 9.60285 51.5257 10.3148 51.1735 11.1537C50.8206 11.9926 50.6445 12.9277 50.6445 13.9587C50.6445 15.0075 50.8206 15.9513 51.1735 16.7902C51.5257 17.6291 52.0226 18.3415 52.6626 18.9269C53.303 19.5126 54.0686 19.9625 54.9593 20.277C55.8502 20.5917 56.8427 20.7489 57.938 20.7489C59.0328 20.7489 60.0259 20.6002 60.9166 20.3032C61.8073 20.0061 62.5729 19.5691 63.2133 18.9923C63.8535 18.4156 64.3497 17.7036 64.7024 16.8558C65.0548 16.0082 65.2314 15.0427 65.2314 13.9587C65.2314 12.9454 65.0548 12.0188 64.7024 11.1799C64.3497 10.3408 63.8535 9.62893 63.2133 9.04309C62.5729 8.45786 61.8073 8.0035 60.9166 7.68C60.0259 7.35665 59.0328 7.19482 57.938 7.19482C56.8427 7.19482 55.8502 7.35223 54.9593 7.66673ZM56.1424 16.4101C55.7062 15.8423 55.4882 15.025 55.4882 13.9587C55.4882 12.9102 55.7014 12.1019 56.1286 11.5338C56.5552 10.9661 57.1585 10.6816 57.938 10.6816C58.7174 10.6816 59.3202 10.9661 59.7475 11.5338C60.174 12.1019 60.3877 12.9102 60.3877 13.9587C60.3877 15.0075 60.1789 15.8203 59.7614 16.397C59.3437 16.9737 58.7451 17.2621 57.9658 17.2621C57.1863 17.2621 56.5784 16.9782 56.1424 16.4101Z" fill="white"/>
<path d="M124.83 10.4458C124.385 10.4458 124 10.5157 123.675 10.6556C123.35 10.7956 123.086 10.9746 122.882 11.1929C122.677 11.4116 122.524 11.6563 122.422 11.927C122.32 12.1982 122.26 12.4735 122.241 12.7529L127.002 12.0188C126.946 11.6694 126.742 11.32 126.389 10.9702C126.037 10.6208 125.517 10.4458 124.83 10.4458ZM125.61 20.7491C124.515 20.7491 123.499 20.6048 122.562 20.3163C121.624 20.0281 120.808 19.5954 120.112 19.0187C119.416 18.4418 118.868 17.7169 118.47 16.8426C118.07 15.9688 117.871 14.9465 117.871 13.7753C117.871 12.6219 118.07 11.63 118.47 10.7997C118.868 9.96982 119.392 9.28805 120.042 8.75483C120.692 8.22191 121.434 7.82856 122.269 7.57506C123.104 7.32188 123.958 7.19482 124.83 7.19482C125.814 7.19482 126.71 7.33499 127.517 7.61441C128.324 7.89414 129.02 8.2788 129.604 8.76794C130.189 9.25739 130.644 9.84277 130.968 10.5245C131.293 11.206 131.456 11.9491 131.456 12.7529C131.456 13.3473 131.279 13.8016 130.927 14.1161C130.574 14.4307 130.082 14.6318 129.451 14.7191L122.576 15.6891C122.78 16.2658 123.197 16.6984 123.828 16.9868C124.459 17.2752 125.183 17.4193 126 17.4193C126.76 17.4193 127.479 17.3277 128.157 17.1442C128.834 16.9605 129.386 16.7469 129.813 16.5018C130.11 16.6767 130.36 16.9212 130.565 17.2358C130.769 17.5504 130.871 17.8827 130.871 18.2321C130.871 19.0187 130.481 19.6044 129.702 19.9886C129.108 20.2861 128.44 20.4869 127.698 20.5917C126.955 20.6964 126.259 20.7491 125.61 20.7491Z" fill="white"/>
<path d="M6.49619 8.16466C4.33761 9.36705 2.1136 11.3489 1.40512 13.7161C1.39285 13.7567 1.38079 13.7961 1.36853 13.8342C0.404158 16.8507 1.39113 20.0545 3.64419 22.1189C3.01426 21.1469 2.64797 19.9882 2.64797 18.7437C2.64797 13.2273 9.61614 9.39503 9.61614 9.39503C9.61614 9.39503 8.77465 11.5426 13.3322 15.7823C17.8302 19.9665 13.4017 24.0741 9.9665 24.845C10.1903 24.845 16.0045 24.0259 18.1947 21.3746C18.1947 21.3746 21.777 18.027 18.9067 13.5349C18.9067 13.5349 18.8589 14.4809 17.384 14.7663C15.2274 15.1832 13.4179 13.7662 13.213 11.579C13.1396 10.7939 13.1011 9.95846 13.1011 8.72442C13.2386 8.63361 14.3396 4.85597 7.17734 1.03336L7.19973 1.00861C7.15733 1.00258 7.11192 1 7.11192 1C9.58644 4.95841 8.38404 7.11312 6.49619 8.16466Z" fill="url(#paint0_linear_1979_2229)"/>
<path d="M7.83468 1.46185C7.89192 1.50059 8.06839 1.62132 8.10003 1.64327C8.15857 1.68416 8.67659 2.05584 8.82982 2.17184L9.3558 2.58461L9.56305 2.75549L10.01 3.14438L10.3748 3.4842L10.5405 3.64647L10.8952 4.0147L11.3099 4.48731L11.6958 4.98424L11.9866 5.40972L12.2528 5.85994L12.5171 6.40142L12.6533 6.74683L12.791 7.20072L12.8834 7.68L12.9137 8.12355V8.12721L12.9079 8.30412C12.8786 9.22824 12.9847 11.5278 12.9901 11.5861C13.0861 12.6112 13.5834 13.5041 14.3068 14.1202C14.4032 14.2025 14.7127 14.4224 14.7665 14.4558C14.8741 14.5223 15.3299 14.7442 15.4493 14.7876C16.047 15.0056 16.7086 15.0706 17.3826 14.9404C18.0278 14.8156 18.4003 14.561 18.6156 14.3142C18.6308 14.2965 18.6455 14.2789 18.6592 14.2614C18.7559 14.139 18.825 14.0238 18.8512 13.924C18.8958 13.7561 18.907 13.7068 18.9091 13.6939C20.8822 17.4012 19.2554 19.7952 18.0282 21.2066C15.7892 23.7814 9.96786 24.845 9.96786 24.845C12.0948 24.9569 13.9979 24.565 15.5795 24.0252C19.6058 22.6511 21.8771 18.6324 20.6863 14.5483C19.9828 12.1347 16.8177 9.39503 16.8177 9.39503C19.3146 14.0921 16.0692 13.8181 15.2853 13.3143C15.2619 13.2996 15.1394 13.2185 15.1175 13.2024C14.4385 12.7009 14.514 11.6442 14.4458 10.9633C14.3898 10.4035 14.4006 9.58141 14.3898 9.34015C14.0539 1.78359 7.97994 1.1188 7.20109 1.00861C7.17182 1.00409 7.14255 1.00129 7.11328 1C7.20905 1.06047 7.80175 1.43968 7.83468 1.46185Z" fill="url(#paint1_linear_1979_2229)"/>
<path d="M10.3594 23.7812C16.1247 21.5423 13.5721 17.4487 13.5721 17.4487C14.2438 21.6467 10.3594 23.7812 10.3594 23.7812Z" fill="url(#paint2_linear_1979_2229)"/>
<path d="M141.726 20V6.9H145.046C146.352 6.9 147.459 7.14667 148.366 7.64C149.286 8.13333 149.986 8.86667 150.466 9.84C150.946 10.8 151.186 11.9867 151.186 13.4C151.186 14.8133 150.946 16.0133 150.466 17C149.986 17.9867 149.299 18.7333 148.406 19.24C147.512 19.7467 146.426 20 145.146 20H141.726ZM143.726 18.38H144.926C145.846 18.38 146.612 18.1933 147.226 17.82C147.852 17.4333 148.326 16.8733 148.646 16.14C148.966 15.4067 149.126 14.4933 149.126 13.4C149.126 12.3067 148.966 11.4 148.646 10.68C148.326 9.96 147.852 9.42 147.226 9.06C146.612 8.7 145.846 8.52 144.926 8.52H143.726V18.38ZM158.358 20.24C157.358 20.24 156.471 19.9733 155.698 19.44C154.938 18.8933 154.338 18.1133 153.898 17.1C153.471 16.0733 153.258 14.84 153.258 13.4C153.258 11.9733 153.471 10.76 153.898 9.76C154.338 8.74667 154.938 7.98 155.698 7.46C156.471 6.92667 157.358 6.66 158.358 6.66C159.358 6.66 160.238 6.92667 160.998 7.46C161.771 7.98 162.371 8.74667 162.798 9.76C163.238 10.76 163.458 11.9733 163.458 13.4C163.458 14.84 163.238 16.0733 162.798 17.1C162.371 18.1133 161.771 18.8933 160.998 19.44C160.238 19.9733 159.358 20.24 158.358 20.24ZM158.358 18.5C158.971 18.5 159.504 18.3 159.958 17.9C160.411 17.4867 160.764 16.9 161.018 16.14C161.271 15.38 161.398 14.4667 161.398 13.4C161.398 12.3333 161.271 11.4333 161.018 10.7C160.764 9.95333 160.411 9.38667 159.958 9C159.504 8.6 158.971 8.4 158.358 8.4C157.744 8.4 157.211 8.6 156.758 9C156.304 9.38667 155.951 9.95333 155.698 10.7C155.444 11.4333 155.318 12.3333 155.318 13.4C155.318 14.4667 155.444 15.38 155.698 16.14C155.951 16.9 156.304 17.4867 156.758 17.9C157.211 18.3 157.744 18.5 158.358 18.5ZM171.69 20.24C170.877 20.24 170.117 20.0933 169.41 19.8C168.717 19.4933 168.103 19.0533 167.57 18.48C167.05 17.8933 166.637 17.18 166.33 16.34C166.037 15.5 165.89 14.5467 165.89 13.48C165.89 12.0533 166.15 10.8333 166.67 9.82C167.19 8.79333 167.897 8.01333 168.79 7.48C169.683 6.93333 170.703 6.66 171.85 6.66C172.65 6.66 173.363 6.82667 173.99 7.16C174.617 7.48 175.13 7.85333 175.53 8.28L174.41 9.54C174.077 9.18 173.697 8.9 173.27 8.7C172.857 8.5 172.383 8.4 171.85 8.4C171.077 8.4 170.397 8.60667 169.81 9.02C169.223 9.42 168.763 9.99333 168.43 10.74C168.11 11.4867 167.95 12.38 167.95 13.42C167.95 14.46 168.11 15.36 168.43 16.12C168.763 16.88 169.223 17.4667 169.81 17.88C170.41 18.2933 171.103 18.5 171.89 18.5C172.463 18.5 172.977 18.38 173.43 18.14C173.883 17.8867 174.303 17.5467 174.69 17.12L175.81 18.34C175.303 18.94 174.71 19.4067 174.03 19.74C173.35 20.0733 172.57 20.24 171.69 20.24ZM183.002 20.24C182.069 20.24 181.189 20.0667 180.362 19.72C179.536 19.3733 178.816 18.9 178.202 18.3L179.362 16.94C179.869 17.4067 180.442 17.7867 181.082 18.08C181.722 18.36 182.402 18.5 183.122 18.5C183.949 18.5 184.589 18.3267 185.042 17.98C185.496 17.6333 185.722 17.1933 185.722 16.66C185.722 16.2333 185.622 15.8933 185.422 15.64C185.222 15.3867 184.949 15.1733 184.602 15C184.269 14.8267 183.882 14.6533 183.442 14.48L181.602 13.66C181.162 13.4867 180.722 13.26 180.282 12.98C179.856 12.6867 179.502 12.32 179.222 11.88C178.942 11.4267 178.802 10.88 178.802 10.24C178.802 9.56 178.989 8.95333 179.362 8.42C179.736 7.87333 180.256 7.44667 180.922 7.14C181.589 6.82 182.356 6.66 183.222 6.66C184.036 6.66 184.796 6.81333 185.502 7.12C186.209 7.41333 186.816 7.80667 187.322 8.3L186.282 9.58C185.856 9.20667 185.389 8.92 184.882 8.72C184.389 8.50667 183.802 8.4 183.122 8.4C182.442 8.4 181.889 8.55333 181.462 8.86C181.036 9.16667 180.822 9.58667 180.822 10.12C180.822 10.5067 180.929 10.82 181.142 11.06C181.369 11.3 181.656 11.5 182.002 11.66C182.362 11.82 182.729 11.98 183.102 12.14L184.882 12.92C185.429 13.1333 185.916 13.3933 186.342 13.7C186.782 13.9933 187.129 14.36 187.382 14.8C187.636 15.24 187.762 15.78 187.762 16.42C187.762 17.1267 187.569 17.7733 187.182 18.36C186.809 18.9333 186.262 19.3933 185.542 19.74C184.836 20.0733 183.989 20.24 183.002 20.24Z" fill="#FF6238"/>
<defs>
<linearGradient id="paint0_linear_1979_2229" x1="8.10039" y1="23.7517" x2="15.7426" y2="0.737869" gradientUnits="userSpaceOnUse">
<stop stop-color="#FF2651"/>
<stop offset="0.01" stop-color="#FF2651"/>
<stop offset="1" stop-color="#FF7B2C"/>
</linearGradient>
<linearGradient id="paint1_linear_1979_2229" x1="14.058" y1="25.4278" x2="14.058" y2="-4.07408" gradientUnits="userSpaceOnUse">
<stop stop-color="#FF7B2C"/>
<stop offset="0.99" stop-color="#FF2651"/>
<stop offset="1" stop-color="#FF2651"/>
</linearGradient>
<linearGradient id="paint2_linear_1979_2229" x1="10.3594" y1="20.5906" x2="14.2162" y2="20.5906" gradientUnits="userSpaceOnUse">
<stop stop-color="#FF2651"/>
<stop offset="0.01" stop-color="#FF2651"/>
<stop offset="1" stop-color="#FF7B2C"/>
</linearGradient>
</defs>
</svg>
