<svg width="200" height="26" viewBox="0 0 200 26" fill="none" xmlns="http://www.w3.org/2000/svg">
<path d="M68.357 4.95309C67.9663 5.01713 67.6663 5.07593 67.457 5.13044V16.8216C67.457 18.4606 67.9092 19.6446 68.8141 20.3727C69.7187 21.1007 71.0093 21.4653 72.6857 21.4653C74.0572 21.4653 75.0142 21.2468 75.5572 20.8097C76.1001 20.3727 76.3714 19.8084 76.3714 19.1162C76.3714 18.7704 76.3094 18.4743 76.1857 18.2283C76.0615 17.9826 75.9143 17.7597 75.7429 17.5591C75.5142 17.6322 75.2474 17.6915 74.9428 17.7368C74.638 17.7824 74.3429 17.8051 74.0572 17.8051C73.4857 17.8051 73.0427 17.7052 72.7286 17.5046C72.4142 17.3044 72.257 16.9676 72.257 16.4939V12.3692H74.8571C75.3523 12.3692 75.7474 12.2283 76.0428 11.9457C76.338 11.6636 76.4858 11.2041 76.4858 10.5665C76.4858 10.2023 76.4331 9.86996 76.3285 9.56929C76.2236 9.26894 76.1142 9.0188 76 8.81809H72.257V7.07001C72.257 6.15974 72.0236 5.56333 71.557 5.28077C71.0901 4.99886 70.4378 4.85742 69.5998 4.85742C69.1615 4.85742 68.7471 4.88936 68.357 4.95309V4.95309Z" fill="white"/>
<path d="M87.3707 11.3309C87.2374 11.2583 87.0423 11.1854 86.7851 11.1124C86.528 11.04 86.2088 11.0031 85.8278 11.0031C84.8945 11.0031 84.1945 11.2537 83.7279 11.7543C83.261 12.2555 83.0279 12.9698 83.0279 13.8987C83.0279 14.955 83.261 15.7151 83.7279 16.1795C84.1945 16.644 84.7896 16.876 85.5137 16.876C86.2944 16.876 86.9136 16.7031 87.3707 16.357V11.3309ZM85.5994 7.37012C86.685 7.37012 87.6708 7.50249 88.5566 7.7663C89.4422 8.03041 90.1896 8.37192 90.7995 8.79067C91.1803 9.04589 91.4803 9.32796 91.6994 9.63737C91.9182 9.94742 92.028 10.3476 92.028 10.8394V20.3998C92.028 21.3647 91.8374 22.1979 91.4567 22.8991C91.0754 23.6001 90.5566 24.183 89.8994 24.6473C89.2423 25.1117 88.4708 25.4532 87.5852 25.6715C86.6993 25.8902 85.7517 25.9995 84.7422 25.9995C83.0086 25.9995 81.6466 25.7761 80.6564 25.3302C79.6657 24.8838 79.1706 24.1599 79.1706 23.1586C79.1706 22.7394 79.2607 22.3708 79.4421 22.0522C79.6229 21.7336 79.8277 21.4925 80.0563 21.3285C80.6087 21.6196 81.2323 21.8653 81.9278 22.066C82.623 22.2661 83.3421 22.3666 84.0849 22.3666C85.1135 22.3666 85.9324 22.2026 86.5423 21.8747C87.1516 21.547 87.4565 21.0189 87.4565 20.2905V19.8535C86.6752 20.1813 85.7229 20.345 84.5994 20.345C83.7422 20.345 82.9278 20.2221 82.1564 19.9765C81.3849 19.7305 80.7087 19.3481 80.1278 18.8292C79.5465 18.3101 79.08 17.6409 78.7278 16.8213C78.3751 16.002 78.1992 15.028 78.1992 13.8987C78.1992 12.788 78.3849 11.8226 78.7562 11.0031C79.1278 10.1837 79.6422 9.50563 80.2991 8.96818C80.9564 8.43136 81.7372 8.03041 82.6423 7.7663C83.5467 7.50249 84.5324 7.37012 85.5994 7.37012" fill="white"/>
<path d="M99.9743 21.0284C99.7645 21.0646 99.4552 21.1145 99.0458 21.1786C98.636 21.2423 98.2216 21.2742 97.8029 21.2742C97.3837 21.2742 97.0073 21.2469 96.6742 21.1922C96.3408 21.1377 96.06 21.0284 95.8315 20.8646C95.6027 20.7006 95.4264 20.4778 95.3029 20.1954C95.1787 19.9131 95.1172 19.5444 95.1172 19.089V3.246C95.3265 3.20977 95.636 3.15971 96.0457 3.09567C96.4551 3.0321 96.8694 3 97.2886 3C97.7073 3 98.0837 3.02749 98.4173 3.082C98.7502 3.13667 99.0315 3.246 99.26 3.40984C99.4886 3.57369 99.6645 3.79696 99.7886 4.0792C99.9123 4.36159 99.9743 4.73044 99.9743 5.18526V21.0284V21.0284Z" fill="white"/>
<path d="M103.027 7.97159C103.218 7.91676 103.518 7.8621 103.927 7.80759C104.337 7.75292 104.76 7.72559 105.199 7.72559C105.618 7.72559 105.994 7.75292 106.327 7.80759C106.661 7.8621 106.942 7.97159 107.17 8.13527C107.399 8.29927 107.575 8.52239 107.699 8.80447C107.822 9.08702 107.885 9.45587 107.885 9.91084V15.7837C107.885 16.5305 108.075 17.0632 108.456 17.3817C108.837 17.7006 109.389 17.8597 110.113 17.8597C110.551 17.8597 110.908 17.8234 111.185 17.7503C111.46 17.6779 111.675 17.6049 111.828 17.532V7.97159C112.018 7.91676 112.318 7.8621 112.727 7.80759C113.137 7.75292 113.561 7.72559 113.999 7.72559C114.418 7.72559 114.794 7.75292 115.128 7.80759C115.461 7.8621 115.742 7.97159 115.971 8.13527C116.199 8.29927 116.375 8.52239 116.499 8.80447C116.623 9.08702 116.685 9.45587 116.685 9.91084V18.2148C116.685 19.1256 116.285 19.8085 115.485 20.2636C114.818 20.6642 114.023 20.9693 113.099 21.1785C112.175 21.3876 111.17 21.4927 110.085 21.4927C109.056 21.4927 108.108 21.3833 107.242 21.1648C106.375 20.9465 105.627 20.6096 104.999 20.1541C104.37 19.6993 103.884 19.1119 103.542 18.3924C103.199 17.6733 103.027 16.8037 103.027 15.7837V7.97159V7.97159Z" fill="white"/>
<path d="M34.9285 3.09567C34.5188 3.15971 34.2094 3.20977 34 3.246V19.089C34 19.5444 34.0617 19.9131 34.1857 20.1954C34.3093 20.4778 34.4857 20.7006 34.7143 20.8646C34.9428 21.0284 35.2238 21.1377 35.5572 21.1922C35.8903 21.2469 36.2667 21.2742 36.6857 21.2742C37.1237 21.2742 37.5474 21.2469 37.9572 21.1922C38.3668 21.1377 38.6666 21.0831 38.8573 21.0284V11.4678C39.0666 11.3407 39.343 11.2315 39.6859 11.1402C40.0287 11.0493 40.3904 11.0035 40.7715 11.0035C41.343 11.0035 41.8239 11.1538 42.2145 11.4543C42.6047 11.7547 42.8002 12.2785 42.8002 13.0251V19.089C42.8002 19.5444 42.8618 19.9131 42.9858 20.1954C43.1095 20.4778 43.2859 20.7006 43.5144 20.8646C43.743 21.0284 44.0239 21.1377 44.3574 21.1922C44.6905 21.2469 45.0668 21.2742 45.4859 21.2742C45.9239 21.2742 46.3476 21.2469 46.7575 21.1922C47.1667 21.1377 47.4668 21.0831 47.6574 21.0284V12.7519C47.6574 10.9673 47.1288 9.6241 46.0717 8.72289C45.0145 7.82136 43.543 7.37051 41.6574 7.37051C41.0475 7.37051 40.4903 7.42995 39.9858 7.54818C39.481 7.66689 39.1046 7.77146 38.8573 7.8622V5.18526C38.8573 4.73044 38.7953 4.36159 38.6716 4.0792C38.5474 3.79696 38.3716 3.57369 38.143 3.40984C37.9145 3.246 37.633 3.13667 37.3001 3.082C36.9666 3.02749 36.5901 3 36.1714 3C35.7524 3 35.338 3.0321 34.9285 3.09567V3.09567Z" fill="white"/>
<path d="M54.4872 7.8618C53.5729 8.18965 52.7872 8.65877 52.1299 9.26869C51.473 9.87909 50.963 10.6209 50.6015 11.4949C50.2393 12.369 50.0586 13.3433 50.0586 14.4176C50.0586 15.5103 50.2393 16.4937 50.6015 17.3677C50.963 18.2417 51.473 18.984 52.1299 19.594C52.7872 20.2042 53.5729 20.673 54.4872 21.0007C55.4016 21.3285 56.4202 21.4924 57.5444 21.4924C58.6681 21.4924 59.6874 21.3374 60.6016 21.028C61.5159 20.7184 62.3016 20.2632 62.9589 19.6621C63.616 19.0613 64.1253 18.3194 64.4873 17.436C64.849 16.5529 65.0302 15.547 65.0302 14.4176C65.0302 13.3617 64.849 12.3963 64.4873 11.5223C64.1253 10.6479 63.616 9.90626 62.9589 9.29586C62.3016 8.6861 61.5159 8.21269 60.6016 7.87563C59.6874 7.53873 58.6681 7.37012 57.5444 7.37012C56.4202 7.37012 55.4016 7.53412 54.4872 7.8618V7.8618ZM55.7015 16.9717C55.2538 16.38 55.0301 15.5286 55.0301 14.4176C55.0301 13.325 55.2488 12.4829 55.6873 11.891C56.1252 11.2995 56.7444 11.0031 57.5444 11.0031C58.3445 11.0031 58.9631 11.2995 59.4016 11.891C59.8395 12.4829 60.0587 13.325 60.0587 14.4176C60.0587 15.5103 59.8445 16.3571 59.4159 16.958C58.9872 17.5589 58.3729 17.8594 57.573 17.8594C56.773 17.8594 56.1489 17.5636 55.7015 16.9717V16.9717Z" fill="white"/>
<path d="M126.198 10.7574C125.74 10.7574 125.345 10.8302 125.012 10.9759C124.678 11.1218 124.407 11.3084 124.198 11.5358C123.988 11.7637 123.831 12.0186 123.726 12.3007C123.621 12.5832 123.559 12.87 123.54 13.1612L128.426 12.3963C128.369 12.0322 128.159 11.6682 127.798 11.3038C127.436 10.9397 126.902 10.7574 126.198 10.7574V10.7574ZM126.997 21.4925C125.873 21.4925 124.831 21.3422 123.869 21.0417C122.907 20.7413 122.069 20.2905 121.355 19.6896C120.64 19.0886 120.078 18.3333 119.669 17.4224C119.259 16.5119 119.055 15.4467 119.055 14.2264C119.055 13.0247 119.259 11.9912 119.669 11.1261C120.078 10.2614 120.616 9.55108 121.283 8.99551C121.95 8.44026 122.712 8.03041 123.569 7.7663C124.426 7.50249 125.302 7.37012 126.198 7.37012C127.207 7.37012 128.126 7.51616 128.955 7.8073C129.783 8.09875 130.498 8.49953 131.098 9.00918C131.698 9.51914 132.164 10.1291 132.498 10.8394C132.831 11.5495 132.998 12.3237 132.998 13.1612C132.998 13.7805 132.816 14.2539 132.455 14.5816C132.093 14.9093 131.588 15.1189 130.941 15.2098L123.883 16.2205C124.093 16.8213 124.521 17.272 125.169 17.5725C125.816 17.873 126.559 18.0232 127.398 18.0232C128.178 18.0232 128.916 17.9277 129.612 17.7365C130.307 17.5452 130.874 17.3226 131.312 17.0672C131.616 17.2495 131.874 17.5042 132.083 17.832C132.293 18.1597 132.398 18.506 132.398 18.8701C132.398 19.6896 131.998 20.2999 131.198 20.7002C130.588 21.0102 129.902 21.2193 129.14 21.3285C128.378 21.4377 127.664 21.4925 126.997 21.4925" fill="white"/>
<path d="M6.49619 8.16466C4.33761 9.36705 2.1136 11.3489 1.40512 13.7161C1.39285 13.7567 1.38079 13.7961 1.36853 13.8342C0.404158 16.8507 1.39113 20.0545 3.64419 22.1189C3.01426 21.1469 2.64797 19.9882 2.64797 18.7437C2.64797 13.2273 9.61614 9.39503 9.61614 9.39503C9.61614 9.39503 8.77465 11.5426 13.3322 15.7823C17.8302 19.9665 13.4017 24.0741 9.9665 24.845C10.1903 24.845 16.0045 24.0259 18.1947 21.3746C18.1947 21.3746 21.777 18.027 18.9067 13.5349C18.9067 13.5349 18.8589 14.4809 17.384 14.7663C15.2274 15.1832 13.4179 13.7662 13.213 11.579C13.1396 10.7939 13.1011 9.95846 13.1011 8.72442C13.2386 8.63361 14.3396 4.85597 7.17734 1.03336L7.19973 1.00861C7.15733 1.00258 7.11192 1 7.11192 1C9.58644 4.95841 8.38404 7.11312 6.49619 8.16466Z" fill="url(#paint0_linear_1979_2229)"/>
<path d="M7.83468 1.46185C7.89192 1.50059 8.06839 1.62132 8.10003 1.64327C8.15857 1.68416 8.67659 2.05584 8.82982 2.17184L9.3558 2.58461L9.56305 2.75549L10.01 3.14438L10.3748 3.4842L10.5405 3.64647L10.8952 4.0147L11.3099 4.48731L11.6958 4.98424L11.9866 5.40972L12.2528 5.85994L12.5171 6.40142L12.6533 6.74683L12.791 7.20072L12.8834 7.68L12.9137 8.12355V8.12721L12.9079 8.30412C12.8786 9.22824 12.9847 11.5278 12.9901 11.5861C13.0861 12.6112 13.5834 13.5041 14.3068 14.1202C14.4032 14.2025 14.7127 14.4224 14.7665 14.4558C14.8741 14.5223 15.3299 14.7442 15.4493 14.7876C16.047 15.0056 16.7086 15.0706 17.3826 14.9404C18.0278 14.8156 18.4003 14.561 18.6156 14.3142C18.6308 14.2965 18.6455 14.2789 18.6592 14.2614C18.7559 14.139 18.825 14.0238 18.8512 13.924C18.8958 13.7561 18.907 13.7068 18.9091 13.6939C20.8822 17.4012 19.2554 19.7952 18.0282 21.2066C15.7892 23.7814 9.96786 24.845 9.96786 24.845C12.0948 24.9569 13.9979 24.565 15.5795 24.0252C19.6058 22.6511 21.8771 18.6324 20.6863 14.5483C19.9828 12.1347 16.8177 9.39503 16.8177 9.39503C19.3146 14.0921 16.0692 13.8181 15.2853 13.3143C15.2619 13.2996 15.1394 13.2185 15.1175 13.2024C14.4385 12.7009 14.514 11.6442 14.4458 10.9633C14.3898 10.4035 14.4006 9.58141 14.3898 9.34015C14.0539 1.78359 7.97994 1.1188 7.20109 1.00861C7.17182 1.00409 7.14255 1.00129 7.11328 1C7.20905 1.06047 7.80175 1.43968 7.83468 1.46185Z" fill="url(#paint1_linear_1979_2229)"/>
<path d="M10.3594 23.7812C16.1247 21.5423 13.5721 17.4487 13.5721 17.4487C14.2438 21.6467 10.3594 23.7812 10.3594 23.7812Z" fill="url(#paint2_linear_1979_2229)"/>
<path d="M143.003 19V7.21H145.991C147.167 7.21 148.163 7.432 148.979 7.876C149.807 8.32 150.437 8.98 150.869 9.856C151.301 10.72 151.517 11.788 151.517 13.06C151.517 14.332 151.301 15.412 150.869 16.3C150.437 17.188 149.819 17.86 149.015 18.316C148.211 18.772 147.233 19 146.081 19H143.003ZM144.803 17.542H145.883C146.711 17.542 147.401 17.374 147.953 17.038C148.517 16.69 148.943 16.186 149.231 15.526C149.519 14.866 149.663 14.044 149.663 13.06C149.663 12.076 149.519 11.26 149.231 10.612C148.943 9.964 148.517 9.478 147.953 9.154C147.401 8.83 146.711 8.668 145.883 8.668H144.803V17.542ZM157.972 19.216C157.072 19.216 156.274 18.976 155.578 18.496C154.894 18.004 154.354 17.302 153.958 16.39C153.574 15.466 153.382 14.356 153.382 13.06C153.382 11.776 153.574 10.684 153.958 9.784C154.354 8.872 154.894 8.182 155.578 7.714C156.274 7.234 157.072 6.994 157.972 6.994C158.872 6.994 159.664 7.234 160.348 7.714C161.044 8.182 161.584 8.872 161.968 9.784C162.364 10.684 162.562 11.776 162.562 13.06C162.562 14.356 162.364 15.466 161.968 16.39C161.584 17.302 161.044 18.004 160.348 18.496C159.664 18.976 158.872 19.216 157.972 19.216ZM157.972 17.65C158.524 17.65 159.004 17.47 159.412 17.11C159.82 16.738 160.138 16.21 160.366 15.526C160.594 14.842 160.708 14.02 160.708 13.06C160.708 12.1 160.594 11.29 160.366 10.63C160.138 9.958 159.82 9.448 159.412 9.1C159.004 8.74 158.524 8.56 157.972 8.56C157.42 8.56 156.94 8.74 156.532 9.1C156.124 9.448 155.806 9.958 155.578 10.63C155.35 11.29 155.236 12.1 155.236 13.06C155.236 14.02 155.35 14.842 155.578 15.526C155.806 16.21 156.124 16.738 156.532 17.11C156.94 17.47 157.42 17.65 157.972 17.65ZM169.971 19.216C169.239 19.216 168.555 19.084 167.919 18.82C167.295 18.544 166.743 18.148 166.263 17.632C165.795 17.104 165.423 16.462 165.147 15.706C164.883 14.95 164.751 14.092 164.751 13.132C164.751 11.848 164.985 10.75 165.453 9.838C165.921 8.914 166.557 8.212 167.361 7.732C168.165 7.24 169.083 6.994 170.115 6.994C170.835 6.994 171.477 7.144 172.041 7.444C172.605 7.732 173.067 8.068 173.427 8.452L172.419 9.586C172.119 9.262 171.777 9.01 171.393 8.83C171.021 8.65 170.595 8.56 170.115 8.56C169.419 8.56 168.807 8.746 168.279 9.118C167.751 9.478 167.337 9.994 167.037 10.666C166.749 11.338 166.605 12.142 166.605 13.078C166.605 14.014 166.749 14.824 167.037 15.508C167.337 16.192 167.751 16.72 168.279 17.092C168.819 17.464 169.443 17.65 170.151 17.65C170.667 17.65 171.129 17.542 171.537 17.326C171.945 17.098 172.323 16.792 172.671 16.408L173.679 17.506C173.223 18.046 172.689 18.466 172.077 18.766C171.465 19.066 170.763 19.216 169.971 19.216ZM180.152 19.216C179.312 19.216 178.52 19.06 177.776 18.748C177.032 18.436 176.384 18.01 175.832 17.47L176.876 16.246C177.332 16.666 177.848 17.008 178.424 17.272C179 17.524 179.612 17.65 180.26 17.65C181.004 17.65 181.58 17.494 181.988 17.182C182.396 16.87 182.6 16.474 182.6 15.994C182.6 15.61 182.51 15.304 182.33 15.076C182.15 14.848 181.904 14.656 181.592 14.5C181.292 14.344 180.944 14.188 180.548 14.032L178.892 13.294C178.496 13.138 178.1 12.934 177.704 12.682C177.32 12.418 177.002 12.088 176.75 11.692C176.498 11.284 176.372 10.792 176.372 10.216C176.372 9.604 176.54 9.058 176.876 8.578C177.212 8.086 177.68 7.702 178.28 7.426C178.88 7.138 179.57 6.994 180.35 6.994C181.082 6.994 181.766 7.132 182.402 7.408C183.038 7.672 183.584 8.026 184.04 8.47L183.104 9.622C182.72 9.286 182.3 9.028 181.844 8.848C181.4 8.656 180.872 8.56 180.26 8.56C179.648 8.56 179.15 8.698 178.766 8.974C178.382 9.25 178.19 9.628 178.19 10.108C178.19 10.456 178.286 10.738 178.478 10.954C178.682 11.17 178.94 11.35 179.252 11.494C179.576 11.638 179.906 11.782 180.242 11.926L181.844 12.628C182.336 12.82 182.774 13.054 183.158 13.33C183.554 13.594 183.866 13.924 184.094 14.32C184.322 14.716 184.436 15.202 184.436 15.778C184.436 16.414 184.262 16.996 183.914 17.524C183.578 18.04 183.086 18.454 182.438 18.766C181.802 19.066 181.04 19.216 180.152 19.216Z" fill="#FF6238"/>
<defs>
<linearGradient id="paint0_linear_1979_2229" x1="8.10039" y1="23.7517" x2="15.7426" y2="0.737869" gradientUnits="userSpaceOnUse">
<stop stop-color="#FF2651"/>
<stop offset="0.01" stop-color="#FF2651"/>
<stop offset="1" stop-color="#FF7B2C"/>
</linearGradient>
<linearGradient id="paint1_linear_1979_2229" x1="14.058" y1="25.4278" x2="14.058" y2="-4.07408" gradientUnits="userSpaceOnUse">
<stop stop-color="#FF7B2C"/>
<stop offset="0.99" stop-color="#FF2651"/>
<stop offset="1" stop-color="#FF2651"/>
</linearGradient>
<linearGradient id="paint2_linear_1979_2229" x1="10.3594" y1="20.5906" x2="14.2162" y2="20.5906" gradientUnits="userSpaceOnUse">
<stop stop-color="#FF2651"/>
<stop offset="0.01" stop-color="#FF2651"/>
<stop offset="1" stop-color="#FF7B2C"/>
</linearGradient>
</defs>
</svg>
